<svg xmlns="http://www.w3.org/2000/svg" xml:space="preserve" style="enable-background:new 0 0 122.88 122.88" viewBox="0 0 122.88 122.88">
  <path d="m76.36 56.15-2.48-2.48c-.75-.75-.75-1.96 0-2.71s1.96-.75 2.71 0l4.95 4.95c3.9-.33 7.8-1.03 11.72-2.31l-15.8-15.8c-.75-.75-.75-1.96 0-2.71s1.96-.75 2.71 0l17.02 17.02c2.91-1.26 5.83-2.87 8.76-4.93l-20.8-20.8c-.75-.75-.75-1.96 0-2.71s1.96-.75 2.71 0l21.17 21.17c1.46-1.19 2.93-2.49 4.39-3.92.76-.74 1.97-.72 2.7.04.74.76.72 1.97-.04 2.7C96.88 62.42 78.4 60.72 59.79 59 41.3 57.3 22.66 55.59 3.28 75.62a1.91 1.91 0 0 1-2.74-2.66c18.97-19.61 37.02-19.68 54.88-18.17-.55-8.13-.63-16.46 1.43-25.12 2.22-9.33 6.9-18.97 16.13-29.04a1.9 1.9 0 0 1 2.69-.12c.78.71.83 1.92.12 2.69-8.72 9.52-13.13 18.59-15.22 27.35-1.99 8.39-1.86 16.57-1.29 24.58l.86.08c1.03.09 2.06.19 3.09.28-.55-7.75-.6-15.5 1.33-23.38 2.06-8.38 6.36-16.81 14.66-25.31a1.91 1.91 0 0 1 2.74 2.66c-7.77 7.96-11.78 15.79-13.69 23.56-1.86 7.56-1.75 15.16-1.19 22.78 3.1.22 6.19.38 9.28.35zM39.74 97.9c.75.75.75 1.96 0 2.71s-1.96.75-2.71 0L15.02 78.59c-.39-.39-.57-.9-.56-1.4-1.65 1.38-3.3 2.91-4.96 4.63a1.91 1.91 0 0 1-2.75-2.65c18.43-19.13 36.24-17.63 54.84-16.06 18.2 1.53 37.2 3.13 58.1-16.02a1.9 1.9 0 0 1 2.69.12 1.9 1.9 0 0 1-.12 2.69C102.75 67.78 85.03 68.61 68.1 67.46c.72 8.53 1.07 17.12-.94 25.89-2.18 9.53-7.09 19.17-17.24 28.99-.76.74-1.97.72-2.7-.04-.74-.76-.72-1.97.04-2.7 9.54-9.24 14.15-18.23 16.17-27.09 1.93-8.48 1.53-16.92.81-25.34-.99-.08-1.99-.16-2.98-.25l-1.05-.09c.58 7.93.75 15.74-1.11 23.61-2.04 8.57-6.47 17.09-15.39 25.69a1.91 1.91 0 0 1-2.65-2.75c8.31-8.01 12.44-15.9 14.32-23.81 1.8-7.56 1.57-15.23.98-23.04-3.3-.25-6.58-.43-9.84-.42l3.8 3.8c.75.75.75 1.96 0 2.71s-1.96.75-2.71 0l-5.29-5.29c-.3-.3-.48-.67-.54-1.05-4.09.29-8.15.98-12.21 2.33l16.77 16.77c.75.75.75 1.96 0 2.71s-1.96.75-2.71 0L26.44 70.91c-.26-.26-.43-.58-.51-.91-3.06 1.33-6.11 3.08-9.17 5.36.35.07.68.25.96.52L39.74 97.9z"/>
</svg>