<svg xmlns="http://www.w3.org/2000/svg" xml:space="preserve" width="122.88" height="122.879">
  <path d="M118.438 61.495a43.076 43.076 0 0 0-.11 2.534 2.22 2.22 0 0 1-1.733 2.167l-2.918.896a2.237 2.237 0 0 1-.651.099v.006h-.464a2.221 2.221 0 0 1-2.15-1.666l-2.556-7.787-.006-.019-.003.001-.464-1.467-4.329 7.777a2.202 2.202 0 0 1-.749.794l.003.004-2.256 1.431a2.22 2.22 0 0 1-3.379-1.517l-2.194-12.321-3.321-2.353-7.793-1.391c.267.423.538.841.806 1.254 1.388 2.142 2.685 4.143 3.115 6.205.693 3.315-.544 6.087-6.063 8.067.159.096.316.201.472.32 2.15 1.645 2.668 4.071-2.021 10.196a176.152 176.152 0 0 0-3.057 4.102 94.58 94.58 0 0 0-1.876 2.7l1.055 7.676c.142 1.034-.106 2.04-.772 3.009-.494.719-1.224 1.402-2.202 2.043-.646.424-1.198.85-1.65 1.277a7.58 7.58 0 0 0-.488.502l.485 2.193a2.212 2.212 0 0 1-1.275 2.505l.001.002-.813.354a9.567 9.567 0 0 1-.691 1.854c-.482.974-1.15 1.926-2.001 2.854-.906.991-1.904 1.741-2.992 2.249a8.383 8.383 0 0 1-3.594.796h-3.908a2.221 2.221 0 0 1-2.221-2.221c0-1.003-.122-2.067-.363-3.195-.25-1.167-.631-2.417-1.141-3.751-.575-1.504-1.014-2.865-1.316-4.083-.322-1.298-.483-2.422-.483-3.374 0-.85.073-1.611.219-2.284.173-.803.452-1.485.836-2.048.04-.059.085-.227.136-.506.078-.429.118-1.018.118-1.771 0-.573-.099-1.176-.294-1.808-.217-.7-.552-1.447-1.002-2.236a36.995 36.995 0 0 1-1.271-2.383c-.41-.865-.615-1.559-.615-2.074 0-3.625-1.243-4.424-2.969-4.424-1.037 0-2.204.158-3.417.323-1.511.205-3.084.418-4.629.418-1.165 0-2.315-.532-3.437-1.588-.827-.778-1.692-1.906-2.583-3.375-.808-1.331-1.418-2.406-1.832-3.216-.57-1.116-.854-1.971-.854-2.543 0-1.463-.001-1.588-.002-1.705-.059-6.162-.113-11.989 5.83-16.283 2.464-3.503 4.683-5.775 7.352-7.221 2.779-1.506 5.871-2.033 10.052-2.033 1.226 0 2.221.995 2.221 2.221v3.149l2.664 1.166.038-.181a2.218 2.218 0 0 1 2.628-1.709l.009.002v-.002c.824.178 1.574.389 2.256.637a9.5 9.5 0 0 1 1.898.915c.281.182.786.343 1.392.449.678.118 1.405.142 2.019.02.326-.065.57-.142.641-.226l.001-.006c-.001 0-.002 0-.001-.002l.014-.071c.056-.331.104-.666.145-1.004l-2.637.235a2.21 2.21 0 0 1-2.191-1.259l-.004.001c-.87-1.83-2.708-2.769-5.015-3.946-2.48-1.266-5.4-2.757-8.545-5.751-10.613 3.765-14.004 4.283-14.854 1.916-.5-1.388.218-2.499 1.185-3.995.872-1.349 2.113-3.267 2.113-5.069 0-.965.617-1.787 1.478-2.093l8.934-4.081h-.002c-.963-.17-2.156-.382-3.145-5.189a2.213 2.213 0 0 1 1.137-2.401l-.001-.002c.697-.367 1.515-.868 2.454-1.504a76.509 76.509 0 0 0 3.419-2.487l.084-.064a54.557 54.557 0 0 0-13.096 3.743l.001.003c-3.494 1.503-6.751 3.263-9.766 5.285a55.41 55.41 0 0 0-8.392 6.911l-.009.009a55.343 55.343 0 0 0-6.91 8.392c-2.023 3.014-3.783 6.271-5.286 9.766a3.425 3.425 0 0 1-.049.106A54.032 54.032 0 0 0 5.553 49.97c-.741 3.703-1.111 7.527-1.111 11.47a58.337 58.337 0 0 0 1.236 12.071l10.271 4.911a2.21 2.21 0 0 1 1.256 1.917h.001c.11 2.936-.673 5.107-1.477 7.334-.598 1.656-1.209 3.35-1.307 5.344-.01.211-.049.413-.113.604a55.404 55.404 0 0 0 6.765 8.178l.009.009v-.001a55.3 55.3 0 0 0 8.392 6.911c3.014 2.022 6.271 3.783 9.766 5.286.036.015.071.031.106.049a54.496 54.496 0 0 0 10.625 3.275c3.703.741 7.527 1.111 11.47 1.111 3.942 0 7.767-.37 11.469-1.111a54.547 54.547 0 0 0 10.732-3.321l-.002-.003c3.495-1.503 6.752-3.264 9.767-5.286a55.448 55.448 0 0 0 8.392-6.911l.009-.008a55.287 55.287 0 0 0 6.909-8.392c2.023-3.014 3.783-6.271 5.286-9.766.016-.036.031-.071.049-.106a54.432 54.432 0 0 0 3.276-10.623 58.498 58.498 0 0 0 1.109-11.417zM37.497 4.801C44.986 1.6 52.975 0 61.44 0c4.23 0 8.344.399 12.336 1.198a58.94 58.94 0 0 1 11.495 3.555c.04.015.081.031.121.048a64.429 64.429 0 0 1 10.477 5.685 59.76 59.76 0 0 1 9.06 7.457l.009.009a59.76 59.76 0 0 1 7.457 9.06 64.54 64.54 0 0 1 5.685 10.477l-.004.001.004.007a58.945 58.945 0 0 1 3.603 11.606 62.727 62.727 0 0 1 1.198 12.337c0 4.231-.399 8.345-1.198 12.337a58.862 58.862 0 0 1-3.556 11.496c-.015.04-.03.079-.047.119a64.505 64.505 0 0 1-5.685 10.477 59.76 59.76 0 0 1-7.457 9.06l-.009.009a59.71 59.71 0 0 1-9.06 7.457 64.464 64.464 0 0 1-10.477 5.685l-.001-.003-.008.003a58.878 58.878 0 0 1-11.606 3.603 62.734 62.734 0 0 1-12.337 1.198c-4.231 0-8.345-.399-12.337-1.198a58.794 58.794 0 0 1-11.494-3.555 1.79 1.79 0 0 1-.121-.048 64.48 64.48 0 0 1-10.478-5.685 59.809 59.809 0 0 1-9.06-7.457l-.009-.009a59.764 59.764 0 0 1-7.456-9.06A64.464 64.464 0 0 1 4.8 85.392l.003-.002-.003-.007a58.858 58.858 0 0 1-3.603-11.606A62.89 62.89 0 0 1 0 61.439c0-4.231.4-8.345 1.199-12.337a58.836 58.836 0 0 1 3.556-11.496c.015-.04.03-.079.047-.119a64.387 64.387 0 0 1 5.685-10.477 59.862 59.862 0 0 1 7.456-9.06l.009-.009a59.809 59.809 0 0 1 9.06-7.457A64.515 64.515 0 0 1 37.49 4.799l.001.003.006-.001zM9.681 83.705a48.712 48.712 0 0 0 1.583 3.315c.1-.282.2-.563.301-.841.517-1.431 1.023-2.834 1.176-4.389L8.08 79.562a50.129 50.129 0 0 0 1.601 4.135l-.003.001.003.007zm77.064-72.95a56.19 56.19 0 0 0-6.432-2.744c-8.247 1.899-10.632.76-13.277-.505-1.345-.643-2.78-1.33-5.946-1.33h-1.894c-.191 0-.59.162-1.198.487-.812.435-1.831 1.118-3.058 2.054a80.161 80.161 0 0 1-3.627 2.625c-.645.437-1.235.816-1.771 1.14 1.058.244 1.866.906 2.429 5.855h-.004a2.214 2.214 0 0 1-1.28 2.255l-8.394 3.834c-.409 2.436-1.735 4.488-2.716 6.005a.251.251 0 0 1-.067.073c1.064-.636 3.626-2.784 9.72-4.992a2.214 2.214 0 0 1 2.485.506c2.991 3.128 5.926 4.625 8.377 5.877 2.569 1.311 4.7 2.399 6.22 4.628l3.585-.32a2.22 2.22 0 0 1 2.62 2.184 24.529 24.529 0 0 1-.366 4.19l-.013.079a4.351 4.351 0 0 1-.633 1.627c-.789 1.227-2.07 1.911-3.512 2.198-1.17.233-2.477.202-3.648-.002-1.159-.202-2.252-.595-3.023-1.091a4.278 4.278 0 0 0-.561-.299l-.103.485h-.002a2.215 2.215 0 0 1-3.052 1.57l-6.331-2.772a2.222 2.222 0 0 1-1.492-2.098V39.97c-2.333.15-4.157.576-5.732 1.43-2.052 1.111-3.859 3.028-5.982 6.081a2.195 2.195 0 0 1-.63.656c-4.338 2.978-4.293 7.763-4.246 12.829.01 1.025.02 1.43.02 1.74 0 .104.117.071.352.53.371.727.929 1.708 1.676 2.938.67 1.104 1.286 1.919 1.838 2.438.263.248.398.373.401.373 1.339 0 2.717-.187 4.04-.366 1.408-.19 2.763-.374 4.006-.374 4.31 0 7.41 1.599 7.41 8.864 0 .134.061-.072.182.184.246.52.618 1.216 1.115 2.088.606 1.063 1.069 2.104 1.384 3.121.334 1.077.503 2.115.503 3.108 0 .97-.07 1.826-.205 2.568-.166.904-.444 1.64-.831 2.206-.057.084-.11.24-.16.469-.076.353-.114.808-.114 1.365 0 .619.115 1.391.344 2.315.25 1.005.636 2.192 1.16 3.563a30.01 30.01 0 0 1 1.332 4.41c.138.646.247 1.278.323 1.894h1.832c.63 0 1.204-.12 1.72-.361.563-.264 1.099-.672 1.605-1.226.553-.605.983-1.216 1.288-1.832.267-.537.431-1.07.489-1.598a2.217 2.217 0 0 1 1.325-1.883l.225-.099-.311-1.404a2.204 2.204 0 0 1 .295-1.665 10.703 10.703 0 0 1 1.696-2.027 16.155 16.155 0 0 1 2.258-1.764c.498-.326.823-.607.987-.846.001-.001.002 0 .003.002l.013.009-1.139-8.282a2.212 2.212 0 0 1 .319-1.643c.641-.979 1.457-2.16 2.449-3.54.962-1.336 2.006-2.74 3.127-4.205 2.463-3.219 2.927-3.931 2.854-3.986-.152-.117-.521-.269-.908-.427-1.513-.619-3.179-1.303-3.964-3.537a2.214 2.214 0 0 1 1.615-2.967c6.022-1.259 7.51-2.595 7.2-4.076-.262-1.256-1.339-2.917-2.491-4.695-1.148-1.771-2.361-3.644-3.177-5.69a2.219 2.219 0 0 1 2.382-3.143l12.731 2.272-.001.009c.313.055.618.177.895.373l4.327 3.065a2.21 2.21 0 0 1 1.076 1.54l1.619 9.089 5.624-10.104a2.22 2.22 0 0 1 4.131.266l2.015 6.366h-.003l1.881 5.73c.07-1.222.197-2.811.401-4.4.208-1.617.499-3.231.898-4.469.292-.908.672-1.679 1.156-2.253a53.671 53.671 0 0 0-1.358-6.232 51.574 51.574 0 0 0-2.621-7.205 57.877 57.877 0 0 0-3.598-6.743 55.64 55.64 0 0 0-4.401-6.111 53.918 53.918 0 0 0-5.19-5.409 54.926 54.926 0 0 0-5.942-4.671 56.515 56.515 0 0 0-6.554-3.873zm-15.34 79.038-.011-.085-.013-.009c.011.021.034.161.024.094zM38.844 30.524c.085.237.265.216.629.004l-.629-.004z"/>
</svg>