<svg xmlns="http://www.w3.org/2000/svg" xml:space="preserve" style="enable-background:new 0 0 122.88 121.05" viewBox="0 0 122.88 121.05">
  <path d="M105.43 92.42c.85 0 1.61.34 2.17.9l.04.05c.53.55.85 1.3.85 2.12 0 .85-.34 1.61-.9 2.17-.55.55-1.32.9-2.17.9H77.28c-.85 0-1.61-.34-2.17-.9-.55-.55-.9-1.32-.9-2.17 0-.84.34-1.61.9-2.16.55-.56 1.32-.9 2.16-.9h28.16v-.01zM20.77 80.74l-.04-.05c-.57-.59-.85-1.35-.85-2.12 0-.78.3-1.56.9-2.16.6-.6 1.38-.9 2.17-.9s1.57.3 2.17.9l7.79 7.79 7.79-7.79a3.068 3.068 0 0 1 4.34 0 3.068 3.068 0 0 1 0 4.34l-7.79 7.79L45 96.31c.6.6.9 1.38.9 2.17s-.3 1.57-.9 2.17a3.068 3.068 0 0 1-4.34 0l-7.79-7.79-7.79 7.79c-.6.6-1.38.9-2.17.9s-1.57-.3-2.17-.9l-.04-.05c-.57-.59-.85-1.35-.85-2.12 0-.78.3-1.56.9-2.16l7.79-7.79-7.77-7.79zm102.11-20.21v49.3c0 1.51-.3 2.96-.85 4.29-.57 1.38-1.41 2.61-2.44 3.65l-.04.04a11.243 11.243 0 0 1-3.6 2.4c-1.32.55-2.77.85-4.29.85H11.23c-1.51 0-2.96-.3-4.29-.85-1.37-.57-2.61-1.41-3.65-2.44a11.088 11.088 0 0 1-2.44-3.65c-.55-1.34-.85-2.79-.85-4.3V11.23c0-1.51.3-2.96.85-4.29.58-1.37 1.41-2.61 2.45-3.64l.04-.04c1.03-1.02 2.25-1.84 3.6-2.4C8.27.3 9.72 0 11.23 0h100.42c1.51 0 2.96.3 4.29.85 1.37.57 2.61 1.41 3.65 2.44s1.87 2.27 2.44 3.65c.55 1.32.85 2.77.85 4.29v49.3zm-6.13 49.29V63.59H64.5v51.34h47.15a5.07 5.07 0 0 0 3.6-1.51c.93-.92 1.5-2.2 1.5-3.6zm0-52.36V11.23a5.07 5.07 0 0 0-1.51-3.6 5.23 5.23 0 0 0-1.66-1.12c-.6-.25-1.25-.39-1.94-.39H64.5v51.34h52.25zM6.13 11.23v46.23h52.25V6.13H11.23c-.69 0-1.35.14-1.94.39-.62.25-1.19.63-1.66 1.11-.93.92-1.5 2.2-1.5 3.6zm0 52.36v46.23a5.07 5.07 0 0 0 1.51 3.6c.47.47 1.04.86 1.66 1.12.6.25 1.25.39 1.94.39h47.15V63.59H6.13zm23.69-46.67c0-.85.34-1.61.9-2.17a3.069 3.069 0 0 1 5.24 2.17v11.01h11.01c.85 0 1.61.34 2.17.9a3.069 3.069 0 0 1-2.17 5.24H35.95v11.01c0 .85-.34 1.61-.9 2.17a3.069 3.069 0 0 1-5.24-2.17V34.06h-11c-.85 0-1.61-.34-2.17-.9a3.069 3.069 0 0 1 2.17-5.24h11.01v-11zm75.61 11.01c.85 0 1.61.34 2.17.9a3.069 3.069 0 0 1-2.17 5.24H77.28c-.85 0-1.61-.34-2.17-.9a3.069 3.069 0 0 1 2.17-5.24h28.15zm0 51.09c.85 0 1.61.34 2.17.9l.04.05c.53.55.85 1.3.85 2.12 0 .85-.34 1.61-.9 2.17-.55.55-1.32.9-2.17.9H77.28c-.85 0-1.61-.34-2.17-.9-.55-.55-.9-1.32-.9-2.17 0-.84.34-1.61.9-2.16.55-.56 1.32-.9 2.16-.9h28.16v-.01z"/>
</svg>