<svg xmlns="http://www.w3.org/2000/svg" xml:space="preserve" style="enable-background:new 0 0 108.22 122.88" viewBox="0 0 108.22 122.88">
  <path d="M54.11 0c5.65 0 10.45 7.29 13.65 19.07 1.11 4.09 2.06 8.76 2.81 13.87 4.8-1.9 9.32-3.41 13.41-4.5 11.79-3.12 20.5-2.6 23.33 2.29 2.82 4.89-1.09 12.69-9.69 21.34-2.98 3-6.55 6.16-10.61 9.37 1.62 1.28 3.17 2.56 4.63 3.82-1.33.93-2.42 2.16-3.18 3.6-1.68-1.45-3.48-2.92-5.38-4.41-3.35 2.49-6.96 4.99-10.8 7.46-.22 4.57-.58 8.95-1.06 13.1 5.03 2.04 9.75 3.64 13.99 4.76 9.61 2.54 16.34 2.73 17.94-.03.85-1.47.25-3.78-1.54-6.68 1.45-.63 2.73-1.59 3.75-2.78 2.89 4.73 3.7 8.84 1.96 11.85-2.83 4.89-11.53 5.41-23.33 2.29-4.09-1.08-8.61-2.6-13.42-4.5-.75 5.11-1.7 9.78-2.81 13.87-3.2 11.78-8 19.07-13.65 19.07s-10.45-7.29-13.65-19.07c-1.11-4.09-2.06-8.76-2.81-13.87-1.74.69-3.44 1.33-5.09 1.91-.13-1.67-.66-3.22-1.49-4.57 1.92-.68 3.9-1.43 5.94-2.26-.48-4.15-.85-8.54-1.06-13.11-3.84-2.47-7.45-4.97-10.8-7.46-4.29 3.34-8.04 6.63-11.13 9.74C7 81.25 3.47 86.99 5.07 89.76c.89 1.54 3.37 2.16 7.05 1.97a10.362 10.362 0 0 0 .65 4.63C6.9 96.61 2.71 95.27.91 92.15-1.91 87.26 2 79.46 10.6 70.81c2.99-3 6.55-6.16 10.61-9.37-4.05-3.21-7.62-6.37-10.61-9.37C2 43.42-1.91 35.62.91 30.73c2.83-4.89 11.53-5.41 23.33-2.29 4.09 1.08 8.61 2.59 13.42 4.5.27-1.85.57-3.64.89-5.36a10.2 10.2 0 0 0 4.61 1.09h.09c-.37 1.97-.7 4.04-1 6.18 3.83 1.65 7.81 3.53 11.86 5.62 4.06-2.09 8.03-3.97 11.86-5.62-.75-5.39-1.72-10.28-2.87-14.51-2.6-9.58-5.8-15.51-8.99-15.51-1.77 0-3.55 1.83-5.22 5.09-1.29-.87-2.78-1.46-4.4-1.67 2.73-5.26 6-8.25 9.62-8.25zm42.68 66.74c3.67 0 6.65 2.98 6.65 6.65 0 3.67-2.98 6.65-6.65 6.65-3.67 0-6.65-2.98-6.65-6.65 0-3.67 2.97-6.65 6.65-6.65zM22.35 85.79c3.67 0 6.65 2.98 6.65 6.65s-2.98 6.65-6.65 6.65c-3.67 0-6.65-2.98-6.65-6.65s2.98-6.65 6.65-6.65zm20.8-74.03c3.67 0 6.65 2.98 6.65 6.65s-2.98 6.65-6.65 6.65c-3.67 0-6.65-2.98-6.65-6.65s2.98-6.65 6.65-6.65zM54.11 52.6c4.88 0 8.84 3.96 8.84 8.84s-3.96 8.84-8.84 8.84-8.84-3.96-8.84-8.84 3.96-8.84 8.84-8.84zm-28.97 5.82c3.35-2.49 6.96-4.99 10.8-7.46.22-4.56.58-8.95 1.06-13.1-5.04-2.04-9.75-3.64-13.99-4.77-9.61-2.54-16.34-2.73-17.94.03-1.6 2.77 1.93 8.51 8.94 15.56 3.09 3.11 6.84 6.4 11.13 9.74zm40.83 29.62c-3.83-1.65-7.81-3.54-11.86-5.63-4.06 2.09-8.03 3.97-11.86 5.63.75 5.39 1.72 10.28 2.87 14.51 2.6 9.58 5.8 15.51 9 15.51 3.19 0 6.4-5.93 8.99-15.51 1.14-4.23 2.11-9.13 2.86-14.51zm-17.05-8.39c-1.32-.73-2.65-1.48-3.98-2.25a.913.913 0 0 1-.13-.08c-1.31-.76-2.6-1.52-3.87-2.29.18 2.76.41 5.44.69 8.02 2.38-1.04 4.82-2.18 7.29-3.4zM59.3 43.23c1.33.73 2.67 1.49 4.02 2.26 1.34.77 2.66 1.55 3.96 2.34-.18-2.75-.41-5.43-.69-8.01-2.38 1.05-4.81 2.19-7.29 3.41zm12.98 7.73c3.84 2.47 7.45 4.97 10.8 7.46 4.29-3.34 8.04-6.63 11.13-9.74 7-7.05 10.53-12.79 8.94-15.56-1.6-2.76-8.33-2.57-17.94-.03-4.24 1.12-8.96 2.72-13.99 4.77.48 4.15.84 8.53 1.06 13.1zm6.8 10.48c-2.1-1.53-4.3-3.07-6.6-4.6.03 1.52.05 3.05.05 4.6 0 1.55-.02 3.09-.05 4.61 2.3-1.53 4.5-3.07 6.6-4.61zm-11.51-7.78c-2.15-1.35-4.38-2.69-6.66-4-2.28-1.32-4.55-2.57-6.8-3.77-2.25 1.19-4.52 2.45-6.8 3.77h-.01c-2.28 1.32-4.5 2.65-6.65 4-.09 2.55-.14 5.14-.14 7.78 0 2.64.05 5.24.14 7.78 2.13 1.33 4.32 2.65 6.57 3.95.01 0 .06.03.06.03l.03.02c2.29 1.32 4.56 2.58 6.81 3.77 2.23-1.18 4.47-2.42 6.73-3.73.04-.02.08-.05.12-.07 2.26-1.31 4.47-2.63 6.6-3.97.09-2.54.14-5.14.14-7.78 0-2.64-.05-5.23-.14-7.78zM48.91 43.23c-2.47-1.22-4.91-2.36-7.28-3.41-.28 2.59-.51 5.26-.69 8.02 1.3-.79 2.62-1.57 3.96-2.34 1.34-.78 2.68-1.54 4.01-2.27zM29.14 61.44c2.1 1.54 4.3 3.08 6.6 4.61-.03-1.52-.05-3.06-.05-4.61 0-1.55.02-3.09.05-4.61-2.3 1.53-4.51 3.07-6.6 4.61zm30.15 18.21c2.48 1.22 4.91 2.36 7.29 3.41.28-2.59.51-5.26.69-8.02-1.3.79-2.62 1.57-3.97 2.35l-.07.04c-1.31.76-2.63 1.5-3.94 2.22z"/>
</svg>