<svg xmlns="http://www.w3.org/2000/svg" version="1.1" xmlns:xlink="http://www.w3.org/1999/xlink" xmlns:svgjs="http://svgjs.dev/svgjs" width="1000" height="623" viewBox="0 0 1000 623"><g transform="matrix(1,0,0,1,-0.6060606060606233,0.2522267206477409)"><svg viewBox="0 0 396 247" data-background-color="#ffffff" preserveAspectRatio="xMidYMid meet" height="623" width="1000" xmlns="http://www.w3.org/2000/svg" xmlns:xlink="http://www.w3.org/1999/xlink"><g id="tight-bounds" transform="matrix(1,0,0,1,0.2400000000000091,-0.09999999999999432)"><svg viewBox="0 0 395.52 247.2" height="247.2" width="395.52"><g><svg></svg></g><g><svg viewBox="0 0 395.52 247.2" height="247.2" width="395.52"><g transform="matrix(1,0,0,1,39.55199999999999,98.7743259305599)"><svg viewBox="0 0 316.416 49.6513481388802" height="49.6513481388802" width="316.416"><g><svg viewBox="0 0 316.416 49.6513481388802" height="49.6513481388802" width="316.416"><g><svg viewBox="0 0 316.416 49.6513481388802" height="49.6513481388802" width="316.416"><g><svg viewBox="0 0 316.416 49.6513481388802" height="49.6513481388802" width="316.416"><g><svg viewBox="0 0 316.416 49.6513481388802" height="49.6513481388802" width="316.416"><g><svg viewBox="0 0 316.416 49.6513481388802" height="49.6513481388802" width="316.416"><g transform="matrix(1,0,0,1,0,0)"><svg width="316.416" viewBox="1.25 -36.25 234.13999938964844 36.7400016784668" height="49.6513481388802" data-palette-color="#e8772e"><path d="M19.6-27.81L19.6 0 9.96 0 9.96-27.81 1.25-27.81 1.25-35.69 28.3-35.69 28.3-27.81 19.6-27.81ZM49.29-28.3L49.29-28.3Q45.85-28.3 43.92-25.48 41.99-22.66 41.99-17.7L41.99-17.7Q41.99-7.4 49.83-7.4L49.83-7.4Q52.19-7.4 54.42-8.06 56.64-8.72 58.88-9.64L58.88-9.64 58.88-1.49Q54.42 0.49 48.78 0.49L48.78 0.49Q40.7 0.49 36.39-4.2 32.08-8.89 32.08-17.75L32.08-17.75Q32.08-23.29 34.16-27.49 36.25-31.69 40.17-33.95 44.09-36.21 49.39-36.21L49.39-36.21Q55.17-36.21 60.45-33.69L60.45-33.69 57.49-26.1Q55.52-27.03 53.54-27.66 51.56-28.3 49.29-28.3ZM99.24-17.9L99.24-17.9Q99.24-8.89 94.82-4.2 90.4 0.49 81.88 0.49L81.88 0.49Q73.48 0.49 69-4.22 64.52-8.94 64.52-17.94L64.52-17.94Q64.52-26.86 68.98-31.56 73.43-36.25 81.93-36.25L81.93-36.25Q90.45-36.25 94.84-31.59 99.24-26.93 99.24-17.9ZM74.68-17.9L74.68-17.9Q74.68-7.54 81.88-7.54L81.88-7.54Q85.54-7.54 87.31-10.06 89.08-12.57 89.08-17.9L89.08-17.9Q89.08-23.24 87.29-25.79 85.49-28.34 81.93-28.34L81.93-28.34Q74.68-28.34 74.68-17.9ZM117.77-12.99L115.32-12.99 115.32 0 105.68 0 105.68-35.69 117.38-35.69Q131.93-35.69 131.93-25.15L131.93-25.15Q131.93-18.95 125.87-15.55L125.87-15.55 136.27 0 125.33 0 117.77-12.99ZM115.32-28.39L115.32-20.24 117.13-20.24Q122.18-20.24 122.18-24.71L122.18-24.71Q122.18-28.39 117.23-28.39L117.23-28.39 115.32-28.39ZM154.6-17.5L159.56-35.69 170.35-35.69 158.66 0 147.3 0 135.66-35.69 146.5-35.69 151.36-17.6Q152.87-11.57 153.02-9.2L153.02-9.2Q153.19-10.91 153.7-13.48 154.21-16.04 154.6-17.5L154.6-17.5ZM194.91-35.69L204.55-35.69 204.55-14.21Q204.55-7.2 200.59-3.36 196.62 0.49 189.15 0.49L189.15 0.49Q181.85 0.49 177.93-3.25 174.01-6.98 174.01-13.99L174.01-13.99 174.01-35.69 183.7-35.69 183.7-14.75Q183.7-10.96 185.12-9.25 186.54-7.54 189.29-7.54L189.29-7.54Q192.25-7.54 193.58-9.24 194.91-10.94 194.91-14.79L194.91-14.79 194.91-35.69ZM235.39-10.84L235.39-10.84Q235.39-7.52 233.7-4.94 232.02-2.37 228.84-0.94 225.67 0.49 221.4 0.49L221.4 0.49Q217.83 0.49 215.41-0.01 213-0.51 210.39-1.76L210.39-1.76 210.39-10.35Q213.14-8.94 216.12-8.14 219.1-7.35 221.59-7.35L221.59-7.35Q223.74-7.35 224.74-8.09 225.74-8.84 225.74-10.01L225.74-10.01Q225.74-10.74 225.34-11.29 224.94-11.84 224.05-12.4 223.15-12.96 219.3-14.7L219.3-14.7Q215.81-16.28 214.06-17.77 212.31-19.26 211.47-21.19 210.63-23.12 210.63-25.76L210.63-25.76Q210.63-30.69 214.22-33.45 217.81-36.21 224.08-36.21L224.08-36.21Q229.62-36.21 235.39-33.64L235.39-33.64 232.43-26.2Q227.43-28.49 223.79-28.49L223.79-28.49Q221.91-28.49 221.05-27.83 220.2-27.17 220.2-26.2L220.2-26.2Q220.2-25.15 221.29-24.32 222.37-23.49 227.18-21.29L227.18-21.29Q231.8-19.21 233.59-16.83 235.39-14.45 235.39-10.84Z" opacity="1" transform="matrix(1,0,0,1,0,0)" fill="#e8772e" class="undefined-text-0" data-fill-palette-color="primary" id="text-0"></path></svg></g></svg></g></svg></g></svg></g></svg></g></svg></g></svg></g><g mask="url(#8f5bee09-3416-4985-80d1-604df45949e7)"><g transform="matrix(2.452, 0, 0, 2.452, 75.16, 1)"><svg xmlns="http://www.w3.org/2000/svg" xmlns:xlink="http://www.w3.org/1999/xlink" version="1.1" baseProfile="tiny" x="0" y="0" viewBox="0 0 100 100" xml:space="preserve" height="100" width="100" class="icon-none" data-fill-palette-color="accent" id="none"><path d="M100 52.993v-6.004H53.466v-3.947h45.905c0 0-3.666-37.641-41.991-42.47v34.642h31.661c0 0-5.333-14.49-13.331-17.821v11.992H63.546V8.566c0 0 22.161 3.165 29.327 29.313l-39.407-0.232V0h-6.005v37.611L8.058 37.379c0 0 5.331-23.317 29.826-29.812l-0.333 21.818H25.554V17.061c0 0-9.998 4.996-13.997 18.154H43.05V0.739c0 0-37.326 5.496-42.491 42.303h46.902v3.947H0v6.004h47.461v4.537H0.642c5.166 36.806 42.492 42.302 42.492 42.302V65.357H11.64c3.999 13.158 13.997 18.154 13.997 18.154V71.187h11.998l0.333 21.818C13.473 86.51 8.141 63.192 8.141 63.192l39.32-0.231v36.988h6.005V62.925l39.49-0.231c-7.165 26.147-29.327 29.313-29.327 29.313V71.187h12.165v11.991c7.998-3.33 13.33-17.819 13.33-17.819H57.463V100c38.326-4.829 41.992-42.47 41.992-42.47H53.466v-4.537H100z" fill="#e8772e" data-fill-palette-color="accent"></path></svg></g></g></svg></g><defs><mask id="d52c656e-f69c-4c5d-987a-3afb5df46333"><rect width="640" height="400" fill="white"></rect><rect width="348.05760000000004" height="73.09433146534877" fill="black" x="145.97119999999998" y="163.4528342673256" id="transform-me" transform="matrix(1,0,0,1,-122.24000000000001,-76.4)"></rect></mask><mask id="bab6b379-4c61-4687-b399-779d0bed9099"><rect width="640" height="400" fill="white"></rect><rect width="348.05760000000004" height="73.09433146534877" fill="black" x="145.97119999999998" y="163.4528342673256" id="transform-me" transform="matrix(1,0,0,1,-122.24000000000001,-76.4)"></rect></mask><mask id="7b13ed75-4dd3-4e26-986a-180f71ece711"><rect width="640" height="400" fill="white"></rect><rect width="348.05760000000004" height="73.09433146534877" fill="black" x="145.97119999999998" y="163.4528342673256" id="transform-me" transform="matrix(1,0,0,1,-122.24000000000001,-76.4)"></rect></mask><mask id="d22adcc2-a6e0-4dc8-be35-af25c5004f7d"><rect width="640" height="400" fill="white"></rect><rect width="348.05760000000004" height="73.09433146534877" fill="black" x="145.97119999999998" y="163.4528342673256" id="transform-me" transform="matrix(1,0,0,1,-122.24000000000001,-76.4)"></rect></mask><mask id="4b79e1d9-aedf-4a6f-a46d-577300180ed8"><rect width="640" height="400" fill="white"></rect><rect width="348.05760000000004" height="73.09433146534877" fill="black" x="145.97119999999998" y="163.4528342673256" id="transform-me" transform="matrix(1,0,0,1,-122.24000000000001,-76.4)"></rect></mask><mask id="a2172df1-1484-4737-b258-c176ea290ddd"><rect width="640" height="400" fill="white"></rect><rect width="348.05760000000004" height="73.09433146534877" fill="black" x="145.97119999999998" y="163.4528342673256" id="transform-me" transform="matrix(1,0,0,1,-122.24000000000001,-76.4)"></rect></mask><mask id="8f5bee09-3416-4985-80d1-604df45949e7"><rect width="640" height="400" fill="white"></rect><rect width="348.05760000000004" height="73.09433146534877" fill="black" x="145.97119999999998" y="163.4528342673256" id="transform-me" transform="matrix(1,0,0,1,-122.24000000000001,-76.4)"></rect></mask></defs></svg><rect width="395.52" height="247.2" fill="none" stroke="none" visibility="hidden"></rect></g></svg></g></svg>